<svg xmlns="http://www.w3.org/2000/svg" viewBox="0 0 240 240" role="img" aria-label="Placeholder donation QR code">
  <rect width="240" height="240" fill="#FAF7F0"/>
  <rect x="16" y="16" width="208" height="208" fill="#FFFFFF" stroke="#0B1F33" stroke-width="4"/>
  <rect x="32" y="32" width="56" height="56" fill="#0B1F33"/>
  <rect x="40" y="40" width="40" height="40" fill="#FAF7F0"/>
  <rect x="48" y="48" width="24" height="24" fill="#0B1F33"/>
  <rect x="152" y="32" width="56" height="56" fill="#0B1F33"/>
  <rect x="160" y="40" width="40" height="40" fill="#FAF7F0"/>
  <rect x="168" y="48" width="24" height="24" fill="#0B1F33"/>
  <rect x="32" y="152" width="56" height="56" fill="#0B1F33"/>
  <rect x="40" y="160" width="40" height="40" fill="#FAF7F0"/>
  <rect x="48" y="168" width="24" height="24" fill="#0B1F33"/>
  <rect x="108" y="108" width="24" height="24" fill="#2F7D5A"/>
  <rect x="140" y="108" width="16" height="16" fill="#0B1F33"/>
  <rect x="108" y="140" width="16" height="16" fill="#0B1F33"/>
  <rect x="164" y="140" width="28" height="12" fill="#0B1F33"/>
  <rect x="140" y="164" width="44" height="20" fill="#0B1F33"/>
  <rect x="108" y="72" width="12" height="20" fill="#0B1F33"/>
  <rect x="72" y="108" width="20" height="12" fill="#0B1F33"/>
  <text x="120" y="226" text-anchor="middle" font-size="10" fill="#0B1F33" font-family="sans-serif">RAHAT DEMO QR</text>
</svg>
